<svg width="128" height="13" viewBox="0 0 128 13" fill="none" xmlns="http://www.w3.org/2000/svg">
<path d="M6.32725 12.16C5.31392 12.16 4.44458 12.0107 3.71925 11.712C2.99392 11.4133 2.44458 11.024 2.07125 10.544C1.70858 10.0533 1.51658 9.52 1.49525 8.944C1.49525 8.85867 1.52725 8.784 1.59125 8.72C1.66592 8.64533 1.75125 8.608 1.84725 8.608H3.86325C3.99125 8.608 4.09258 8.63467 4.16725 8.688C4.25258 8.73067 4.33792 8.8 4.42325 8.896C4.56192 9.17333 4.78592 9.40267 5.09525 9.584C5.40458 9.76533 5.81525 9.856 6.32725 9.856C6.93525 9.856 7.39925 9.76 7.71925 9.568C8.03925 9.376 8.19925 9.11467 8.19925 8.784C8.19925 8.54933 8.11392 8.35733 7.94325 8.208C7.78325 8.05867 7.52725 7.92533 7.17525 7.808C6.82325 7.69067 6.30058 7.55733 5.60725 7.408C4.32725 7.14133 3.36725 6.752 2.72725 6.24C2.09792 5.71733 1.78325 4.976 1.78325 4.016C1.78325 3.36533 1.96458 2.784 2.32725 2.272C2.68992 1.76 3.20725 1.36 3.87925 1.072C4.55125 0.783999 5.33525 0.639999 6.23125 0.639999C7.15925 0.639999 7.96458 0.8 8.64725 1.12C9.32992 1.44 9.84725 1.84533 10.1993 2.336C10.5619 2.816 10.7539 3.29067 10.7753 3.76C10.7753 3.856 10.7433 3.936 10.6793 4C10.6153 4.064 10.5353 4.096 10.4392 4.096H8.32725C8.19925 4.096 8.09258 4.07467 8.00725 4.032C7.93258 3.98933 7.86325 3.92 7.79925 3.824C7.73525 3.57867 7.55925 3.37067 7.27125 3.2C6.99392 3.02933 6.64725 2.944 6.23125 2.944C5.75125 2.944 5.38325 3.02933 5.12725 3.2C4.87125 3.37067 4.74325 3.62133 4.74325 3.952C4.74325 4.176 4.81258 4.36267 4.95125 4.512C5.10058 4.66133 5.33525 4.8 5.65525 4.928C5.98592 5.04533 6.45525 5.168 7.06325 5.296C8.05525 5.47733 8.84458 5.70667 9.43125 5.984C10.0286 6.25067 10.4659 6.60267 10.7433 7.04C11.0206 7.46667 11.1593 8.00533 11.1593 8.656C11.1593 9.37067 10.9513 9.99467 10.5353 10.528C10.1299 11.0507 9.55925 11.456 8.82325 11.744C8.09792 12.0213 7.26592 12.16 6.32725 12.16ZM16.4246 12.16C15.1446 12.16 14.1366 11.8133 13.4006 11.12C12.6646 10.4267 12.2806 9.41867 12.2486 8.096V7.536C12.2913 6.27733 12.6806 5.296 13.4166 4.592C14.1633 3.87733 15.1606 3.52 16.4086 3.52C17.3153 3.52 18.078 3.70667 18.6966 4.08C19.326 4.44267 19.7953 4.944 20.1046 5.584C20.4246 6.224 20.5846 6.96 20.5846 7.792V8.176C20.5846 8.28267 20.5473 8.37867 20.4726 8.464C20.398 8.53867 20.302 8.576 20.1846 8.576H15.0646V8.688C15.086 9.18933 15.2086 9.59467 15.4326 9.904C15.6566 10.2133 15.982 10.368 16.4086 10.368C16.6753 10.368 16.894 10.3147 17.0646 10.208C17.2353 10.0907 17.39 9.952 17.5286 9.792C17.6246 9.67467 17.6993 9.60533 17.7526 9.584C17.8166 9.552 17.9126 9.536 18.0406 9.536H20.0246C20.1206 9.536 20.2006 9.568 20.2646 9.632C20.3393 9.68533 20.3766 9.76 20.3766 9.856C20.3766 10.1333 20.2166 10.4533 19.8966 10.816C19.5873 11.1787 19.134 11.4933 18.5366 11.76C17.9393 12.0267 17.2353 12.16 16.4246 12.16ZM17.7686 6.992V6.96C17.7686 6.43733 17.646 6.02667 17.4006 5.728C17.166 5.41867 16.8353 5.264 16.4086 5.264C15.9926 5.264 15.662 5.41867 15.4166 5.728C15.182 6.02667 15.0646 6.43733 15.0646 6.96V6.992H17.7686ZM22.4846 12C22.3673 12 22.2713 11.9627 22.1966 11.888C22.122 11.8133 22.0846 11.7173 22.0846 11.6V4.08C22.0846 3.96267 22.122 3.86667 22.1966 3.792C22.2713 3.71733 22.3673 3.68 22.4846 3.68H24.3246C24.442 3.68 24.538 3.71733 24.6126 3.792C24.698 3.86667 24.7406 3.96267 24.7406 4.08V4.688C25.0286 4.336 25.3966 4.05333 25.8446 3.84C26.3033 3.62667 26.8206 3.52 27.3966 3.52C28.3353 3.52 29.098 3.84 29.6846 4.48C30.2713 5.10933 30.5646 5.99467 30.5646 7.136V11.6C30.5646 11.7067 30.5273 11.8027 30.4526 11.888C30.378 11.9627 30.282 12 30.1646 12H28.1486C28.042 12 27.946 11.9627 27.8606 11.888C27.786 11.8027 27.7486 11.7067 27.7486 11.6V7.232C27.7486 6.73067 27.626 6.34667 27.3806 6.08C27.1353 5.80267 26.7833 5.664 26.3246 5.664C25.8766 5.664 25.5246 5.80267 25.2686 6.08C25.0126 6.34667 24.8846 6.73067 24.8846 7.232V11.6C24.8846 11.7067 24.8473 11.8027 24.7726 11.888C24.698 11.9627 24.602 12 24.4846 12H22.4846ZM36.5281 12C34.3201 12 33.2161 10.9493 33.2161 8.848V5.776H31.9681C31.8508 5.776 31.7495 5.73867 31.6641 5.664C31.5895 5.58933 31.5521 5.49333 31.5521 5.376V4.08C31.5521 3.96267 31.5895 3.86667 31.6641 3.792C31.7495 3.71733 31.8508 3.68 31.9681 3.68H33.2161V1.04C33.2161 0.922666 33.2535 0.826666 33.3281 0.752C33.4135 0.677333 33.5095 0.639999 33.6161 0.639999H35.4721C35.5895 0.639999 35.6855 0.677333 35.7601 0.752C35.8348 0.826666 35.8721 0.922666 35.8721 1.04V3.68H37.8721C37.9895 3.68 38.0855 3.71733 38.1601 3.792C38.2455 3.86667 38.2881 3.96267 38.2881 4.08V5.376C38.2881 5.49333 38.2455 5.58933 38.1601 5.664C38.0855 5.73867 37.9895 5.776 37.8721 5.776H35.8721V8.624C35.8721 9.41333 36.1761 9.808 36.7841 9.808H38.0161C38.1335 9.808 38.2295 9.84533 38.3041 9.92C38.3788 9.99467 38.4161 10.0907 38.4161 10.208V11.6C38.4161 11.7067 38.3788 11.8027 38.3041 11.888C38.2295 11.9627 38.1335 12 38.0161 12H36.5281ZM40.1249 2.48C40.0075 2.48 39.9115 2.44267 39.8369 2.368C39.7622 2.29333 39.7249 2.19733 39.7249 2.08V0.639999C39.7249 0.522666 39.7622 0.426666 39.8369 0.351999C39.9115 0.277333 40.0075 0.24 40.1249 0.24H42.0449C42.1622 0.24 42.2582 0.277333 42.3329 0.351999C42.4075 0.426666 42.4449 0.522666 42.4449 0.639999V2.08C42.4449 2.19733 42.4075 2.29333 42.3329 2.368C42.2582 2.44267 42.1622 2.48 42.0449 2.48H40.1249ZM40.1409 12C40.0235 12 39.9275 11.9627 39.8529 11.888C39.7782 11.8133 39.7409 11.7173 39.7409 11.6V4.08C39.7409 3.96267 39.7782 3.86667 39.8529 3.792C39.9275 3.71733 40.0235 3.68 40.1409 3.68H42.0289C42.1462 3.68 42.2422 3.71733 42.3169 3.792C42.3915 3.86667 42.4289 3.96267 42.4289 4.08V11.6C42.4289 11.7067 42.3915 11.8027 42.3169 11.888C42.2422 11.9627 42.1462 12 42.0289 12H40.1409ZM48.159 12.16C46.879 12.16 45.871 11.8133 45.135 11.12C44.399 10.4267 44.015 9.41867 43.983 8.096V7.536C44.0257 6.27733 44.415 5.296 45.151 4.592C45.8977 3.87733 46.895 3.52 48.143 3.52C49.0497 3.52 49.8123 3.70667 50.431 4.08C51.0603 4.44267 51.5297 4.944 51.839 5.584C52.159 6.224 52.319 6.96 52.319 7.792V8.176C52.319 8.28267 52.2817 8.37867 52.207 8.464C52.1323 8.53867 52.0363 8.576 51.919 8.576H46.799V8.688C46.8203 9.18933 46.943 9.59467 47.167 9.904C47.391 10.2133 47.7163 10.368 48.143 10.368C48.4097 10.368 48.6283 10.3147 48.799 10.208C48.9697 10.0907 49.1243 9.952 49.263 9.792C49.359 9.67467 49.4337 9.60533 49.487 9.584C49.551 9.552 49.647 9.536 49.775 9.536H51.759C51.855 9.536 51.935 9.568 51.999 9.632C52.0737 9.68533 52.111 9.76 52.111 9.856C52.111 10.1333 51.951 10.4533 51.631 10.816C51.3217 11.1787 50.8683 11.4933 50.271 11.76C49.6737 12.0267 48.9697 12.16 48.159 12.16ZM49.503 6.992V6.96C49.503 6.43733 49.3803 6.02667 49.135 5.728C48.9003 5.41867 48.5697 5.264 48.143 5.264C47.727 5.264 47.3963 5.41867 47.151 5.728C46.9163 6.02667 46.799 6.43733 46.799 6.96V6.992H49.503ZM54.219 12C54.1017 12 54.0057 11.9627 53.931 11.888C53.8563 11.8133 53.819 11.7173 53.819 11.6V4.08C53.819 3.96267 53.8563 3.86667 53.931 3.792C54.0057 3.71733 54.1017 3.68 54.219 3.68H56.059C56.1763 3.68 56.2723 3.71733 56.347 3.792C56.4323 3.86667 56.475 3.96267 56.475 4.08V4.688C56.763 4.336 57.131 4.05333 57.579 3.84C58.0377 3.62667 58.555 3.52 59.131 3.52C60.0697 3.52 60.8323 3.84 61.419 4.48C62.0057 5.10933 62.299 5.99467 62.299 7.136V11.6C62.299 11.7067 62.2617 11.8027 62.187 11.888C62.1123 11.9627 62.0163 12 61.899 12H59.883C59.7763 12 59.6803 11.9627 59.595 11.888C59.5203 11.8027 59.483 11.7067 59.483 11.6V7.232C59.483 6.73067 59.3603 6.34667 59.115 6.08C58.8697 5.80267 58.5177 5.664 58.059 5.664C57.611 5.664 57.259 5.80267 57.003 6.08C56.747 6.34667 56.619 6.73067 56.619 7.232V11.6C56.619 11.7067 56.5817 11.8027 56.507 11.888C56.4323 11.9627 56.3363 12 56.219 12H54.219ZM68.2625 12C66.0545 12 64.9505 10.9493 64.9505 8.848V5.776H63.7025C63.5852 5.776 63.4838 5.73867 63.3985 5.664C63.3238 5.58933 63.2865 5.49333 63.2865 5.376V4.08C63.2865 3.96267 63.3238 3.86667 63.3985 3.792C63.4838 3.71733 63.5852 3.68 63.7025 3.68H64.9505V1.04C64.9505 0.922666 64.9878 0.826666 65.0625 0.752C65.1478 0.677333 65.2438 0.639999 65.3505 0.639999H67.2065C67.3238 0.639999 67.4198 0.677333 67.4945 0.752C67.5692 0.826666 67.6065 0.922666 67.6065 1.04V3.68H69.6065C69.7238 3.68 69.8198 3.71733 69.8945 3.792C69.9798 3.86667 70.0225 3.96267 70.0225 4.08V5.376C70.0225 5.49333 69.9798 5.58933 69.8945 5.664C69.8198 5.73867 69.7238 5.776 69.6065 5.776H67.6065V8.624C67.6065 9.41333 67.9105 9.808 68.5185 9.808H69.7505C69.8678 9.808 69.9638 9.84533 70.0385 9.92C70.1132 9.99467 70.1505 10.0907 70.1505 10.208V11.6C70.1505 11.7067 70.1132 11.8027 70.0385 11.888C69.9638 11.9627 69.8678 12 69.7505 12H68.2625ZM74.0113 12C73.9259 12 73.8459 11.968 73.7713 11.904C73.7073 11.8293 73.6753 11.7493 73.6753 11.664C73.6753 11.6 73.6806 11.552 73.6913 11.52L77.4513 1.248C77.4833 1.12 77.5526 1.01333 77.6593 0.927999C77.7659 0.842666 77.9046 0.799999 78.0753 0.799999H80.4433C80.6139 0.799999 80.7526 0.842666 80.8593 0.927999C80.9659 1.01333 81.0353 1.12 81.0673 1.248L84.8113 11.52L84.8433 11.664C84.8433 11.7493 84.8059 11.8293 84.7313 11.904C84.6673 11.968 84.5873 12 84.4913 12H82.5233C82.2673 12 82.0966 11.888 82.0113 11.664L81.3873 10.032H77.1153L76.5073 11.664C76.4219 11.888 76.2459 12 75.9793 12H74.0113ZM80.7473 7.728L79.2593 3.504L77.7713 7.728H80.7473ZM86.8974 12C86.7907 12 86.6947 11.9627 86.6094 11.888C86.5347 11.8027 86.4974 11.7067 86.4974 11.6V5.776H85.2814C85.164 5.776 85.068 5.73867 84.9934 5.664C84.9187 5.58933 84.8814 5.49333 84.8814 5.376V4.08C84.8814 3.96267 84.9187 3.86667 84.9934 3.792C85.068 3.71733 85.164 3.68 85.2814 3.68H86.4974V3.168C86.4974 2.112 86.796 1.34933 87.3934 0.879999C88.0014 0.4 88.8707 0.16 90.0014 0.16H91.2494C91.3667 0.16 91.4627 0.197333 91.5374 0.271999C91.612 0.346666 91.6494 0.442666 91.6494 0.559999V1.856C91.6494 1.96267 91.612 2.05867 91.5374 2.144C91.4627 2.21867 91.3667 2.256 91.2494 2.256H90.1294C89.7774 2.256 89.5267 2.34133 89.3774 2.512C89.228 2.672 89.1534 2.91733 89.1534 3.248V3.68H91.0894C91.2067 3.68 91.3027 3.71733 91.3774 3.792C91.452 3.86667 91.4894 3.96267 91.4894 4.08V5.376C91.4894 5.48267 91.452 5.57867 91.3774 5.664C91.3027 5.73867 91.2067 5.776 91.0894 5.776H89.1534V11.6C89.1534 11.7067 89.116 11.8027 89.0414 11.888C88.9667 11.9627 88.8707 12 88.7534 12H86.8974ZM93.0471 12C92.9298 12 92.8338 11.9627 92.7591 11.888C92.6845 11.8133 92.6471 11.7173 92.6471 11.6V4.08C92.6471 3.96267 92.6845 3.86667 92.7591 3.792C92.8338 3.71733 92.9298 3.68 93.0471 3.68H94.8871C95.0045 3.68 95.1005 3.72267 95.1751 3.808C95.2605 3.88267 95.3031 3.97333 95.3031 4.08V4.72C95.8898 4.02667 96.6791 3.68 97.6711 3.68H98.3751C98.4925 3.68 98.5885 3.71733 98.6631 3.792C98.7378 3.86667 98.7751 3.96267 98.7751 4.08V5.728C98.7751 5.83467 98.7378 5.93067 98.6631 6.016C98.5885 6.09067 98.4925 6.128 98.3751 6.128H96.8231C96.3858 6.128 96.0445 6.25067 95.7991 6.496C95.5645 6.73067 95.4471 7.06667 95.4471 7.504V11.6C95.4471 11.7173 95.4045 11.8133 95.3191 11.888C95.2445 11.9627 95.1485 12 95.0311 12H93.0471ZM100.297 2.48C100.179 2.48 100.083 2.44267 100.009 2.368C99.9341 2.29333 99.8968 2.19733 99.8968 2.08V0.639999C99.8968 0.522666 99.9341 0.426666 100.009 0.351999C100.083 0.277333 100.179 0.24 100.297 0.24H102.217C102.334 0.24 102.43 0.277333 102.505 0.351999C102.579 0.426666 102.617 0.522666 102.617 0.639999V2.08C102.617 2.19733 102.579 2.29333 102.505 2.368C102.43 2.44267 102.334 2.48 102.217 2.48H100.297ZM100.313 12C100.195 12 100.099 11.9627 100.025 11.888C99.9501 11.8133 99.9128 11.7173 99.9128 11.6V4.08C99.9128 3.96267 99.9501 3.86667 100.025 3.792C100.099 3.71733 100.195 3.68 100.313 3.68H102.201C102.318 3.68 102.414 3.71733 102.489 3.792C102.563 3.86667 102.601 3.96267 102.601 4.08V11.6C102.601 11.7067 102.563 11.8027 102.489 11.888C102.414 11.9627 102.318 12 102.201 12H100.313ZM108.315 12.16C107.11 12.16 106.134 11.84 105.387 11.2C104.64 10.5493 104.24 9.648 104.187 8.496L104.171 7.856L104.187 7.2C104.23 6.048 104.624 5.14667 105.371 4.496C106.128 3.84533 107.11 3.52 108.315 3.52C109.222 3.52 109.984 3.68533 110.603 4.016C111.232 4.336 111.696 4.72533 111.995 5.184C112.304 5.632 112.47 6.04267 112.491 6.416C112.502 6.52267 112.464 6.61867 112.379 6.704C112.304 6.77867 112.208 6.816 112.091 6.816H110.059C109.942 6.816 109.851 6.78933 109.787 6.736C109.723 6.68267 109.664 6.60267 109.611 6.496C109.483 6.16533 109.318 5.93067 109.115 5.792C108.923 5.65333 108.672 5.584 108.363 5.584C107.488 5.584 107.035 6.14933 107.003 7.28L106.987 7.888L107.003 8.416C107.024 8.992 107.147 9.41867 107.371 9.696C107.606 9.96267 107.936 10.096 108.363 10.096C108.694 10.096 108.955 10.0267 109.147 9.888C109.339 9.74933 109.494 9.51467 109.611 9.184C109.664 9.07733 109.723 8.99733 109.787 8.944C109.851 8.89067 109.942 8.864 110.059 8.864H112.091C112.198 8.864 112.288 8.90133 112.363 8.976C112.448 9.04 112.491 9.12533 112.491 9.232C112.491 9.57333 112.342 9.97333 112.043 10.432C111.755 10.8907 111.296 11.296 110.667 11.648C110.038 11.9893 109.254 12.16 108.315 12.16ZM116.424 12.16C115.859 12.16 115.342 12.0533 114.872 11.84C114.414 11.616 114.051 11.3173 113.784 10.944C113.528 10.56 113.4 10.1387 113.4 9.68C113.4 8.944 113.699 8.352 114.296 7.904C114.904 7.456 115.736 7.14667 116.792 6.976L118.792 6.672V6.448C118.792 6.04267 118.707 5.744 118.536 5.552C118.366 5.36 118.078 5.264 117.672 5.264C117.427 5.264 117.224 5.30667 117.064 5.392C116.904 5.47733 116.739 5.59467 116.568 5.744C116.419 5.872 116.307 5.95733 116.232 6C116.2 6.08533 116.142 6.128 116.056 6.128H114.312C114.206 6.128 114.115 6.096 114.04 6.032C113.976 5.95733 113.95 5.872 113.96 5.776C113.971 5.488 114.11 5.168 114.376 4.816C114.654 4.464 115.07 4.16 115.624 3.904C116.19 3.648 116.883 3.52 117.704 3.52C119.016 3.52 119.987 3.81333 120.616 4.4C121.246 4.976 121.56 5.75467 121.56 6.736V11.6C121.56 11.7067 121.523 11.8027 121.448 11.888C121.374 11.9627 121.278 12 121.16 12H119.304C119.198 12 119.102 11.9627 119.016 11.888C118.942 11.8027 118.904 11.7067 118.904 11.6V11.04C118.67 11.3707 118.339 11.6427 117.912 11.856C117.496 12.0587 117 12.16 116.424 12.16ZM117.176 10.336C117.667 10.336 118.062 10.176 118.36 9.856C118.67 9.536 118.824 9.06667 118.824 8.448V8.224L117.464 8.464C116.504 8.63467 116.024 8.97067 116.024 9.472C116.024 9.73867 116.136 9.952 116.36 10.112C116.584 10.2613 116.856 10.336 117.176 10.336Z" fill="black"/>
<path d="M123.686 12C123.579 12 123.483 11.9627 123.398 11.888C123.323 11.8027 123.286 11.7067 123.286 11.6V9.568C123.286 9.45067 123.323 9.35467 123.398 9.28C123.483 9.20533 123.579 9.168 123.686 9.168H125.718C125.835 9.168 125.931 9.20533 126.006 9.28C126.081 9.35467 126.118 9.45067 126.118 9.568V11.6C126.118 11.7067 126.081 11.8027 126.006 11.888C125.931 11.9627 125.835 12 125.718 12H123.686Z" fill="#00D563"/>
</svg>
