<svg width="100" height="32" viewBox="0 0 100 32" fill="none" xmlns="http://www.w3.org/2000/svg">
<g clip-path="url(#clip0)">
<path d="M16.6047 28.5429L16.478 18.3791L24.6723 18.3837V15.1018L16.478 14.8141V8.39141L25.2901 8.28164V4.99981H13.0046V28.5429H16.6047V28.5429ZM39.6785 28.015C40.8674 27.3902 41.8719 26.4436 42.5856 25.2754C43.2855 24.0525 43.6548 22.6563 43.6548 21.2338C43.6548 19.8114 43.2855 18.4152 42.5856 17.1923C41.8702 16.0273 40.866 15.0834 39.6785 14.4597C38.3957 13.812 36.9881 13.4755 35.5617 13.4755C34.1353 13.4755 32.7275 13.812 31.4448 14.4597C30.2564 15.0823 29.252 16.0264 28.5376 17.1923C27.8352 18.4143 27.4643 19.8108 27.4643 21.2338C27.4643 22.6569 27.8352 24.0534 28.5376 25.2754C29.2503 26.4445 30.255 27.3913 31.4448 28.015C32.7275 28.6626 34.1353 28.9992 35.5617 28.9992C36.9881 28.9992 38.3957 28.6626 39.6785 28.015V28.015ZM33.2585 25.3465C32.5811 24.9537 32.0198 24.3765 31.6348 23.677C31.2424 22.9271 31.0367 22.0871 31.0367 21.2336C31.0367 20.3802 31.2424 19.5402 31.6348 18.7903C32.0214 18.094 32.5824 17.5196 33.2585 17.1282C33.9677 16.7346 34.7595 16.5288 35.5636 16.5288C36.3678 16.5288 37.1594 16.7346 37.8686 17.1282C38.5463 17.5173 39.1081 18.0923 39.4924 18.7903C39.8795 19.543 40.082 20.3831 40.082 21.2363C40.082 22.0896 39.8795 22.9297 39.4924 23.6824C39.1081 24.3804 38.5463 24.9553 37.8686 25.3445C37.1596 25.7383 36.368 25.9445 35.5638 25.9449C34.7597 25.9453 33.9678 25.7397 33.2585 25.3465V25.3465ZM51.1482 28.5429V4H47.7263V28.5429H51.1482ZM59.8613 28.5429V13.9302H56.4394V28.5412H59.8613V28.5429ZM59.1959 10.6414C59.5022 10.4483 59.7569 10.1784 59.9366 9.85658C60.1258 9.53185 60.2244 9.15899 60.2216 8.77949C60.2281 8.39497 60.1293 8.01645 59.9366 7.68801C59.7539 7.37229 59.4996 7.10768 59.1959 6.91719C58.8798 6.72573 58.5204 6.62485 58.1543 6.62485C57.7883 6.62485 57.4287 6.72573 57.1126 6.91719C56.8066 7.1074 56.5499 7.37193 56.3642 7.68801C56.1745 8.01761 56.0771 8.3956 56.083 8.77949C56.0807 9.15837 56.1779 9.53072 56.3642 9.85658C56.5467 10.1789 56.8039 10.4487 57.1126 10.6414C57.4287 10.8331 57.7883 10.9341 58.1543 10.9341C58.5204 10.9341 58.8798 10.8331 59.1959 10.6414V10.6414ZM76.2141 28.0134C77.403 27.3885 78.4075 26.442 79.1212 25.2738C79.8236 24.0517 80.1945 22.6552 80.1945 21.2322C80.1945 19.8092 79.8236 18.4127 79.1212 17.1907C78.4059 16.0256 77.4016 15.0818 76.2141 14.458C74.9313 13.8104 73.5238 13.4739 72.0973 13.4739C70.6709 13.4739 69.2631 13.8104 67.9804 14.458C66.792 15.0807 65.7876 16.0247 65.0732 17.1907C64.3708 18.4127 64 19.8092 64 21.2322C64 22.6552 64.3708 24.0517 65.0732 25.2738C65.7859 26.4429 66.7906 27.3897 67.9804 28.0134C69.263 28.6613 70.6707 28.9981 72.0971 28.9984C73.5236 28.9986 74.9312 28.6624 76.2141 28.015V28.0134ZM69.7941 25.3449C69.1175 24.9508 68.5565 24.3739 68.1705 23.6754C67.778 22.9254 67.5723 22.0855 67.5723 21.232C67.5723 20.3785 67.778 19.5386 68.1705 18.7886C68.5582 18.0933 69.1189 17.5192 69.7941 17.1265C70.5033 16.733 71.2951 16.5271 72.0993 16.5271C72.9034 16.5271 73.695 16.733 74.4042 17.1265C75.0819 17.5157 75.6437 18.0906 76.028 18.7886C76.4151 19.5413 76.6177 20.3814 76.6177 21.2347C76.6177 22.0879 76.4151 22.928 76.028 23.6807C75.6437 24.3787 75.0819 24.9537 74.4042 25.3428C73.6953 25.7369 72.9038 25.9434 72.0996 25.9441C71.2955 25.9447 70.5036 25.7395 69.7941 25.3465V25.3449Z" fill="white"/>
<path d="M86.9029 28.6868C87.2426 28.4821 87.5229 28.1863 87.7147 27.8305C87.907 27.4677 88.0079 27.0604 88.0079 26.6463C88.0079 26.2323 87.907 25.8249 87.7147 25.4621C87.5227 25.1065 87.2424 24.8108 86.9029 24.6058C86.5542 24.3959 86.1575 24.2875 85.7544 24.2921C85.3516 24.2896 84.9554 24.3978 84.6059 24.6058C84.2607 24.8121 83.9737 25.109 83.774 25.4668C83.5742 25.8245 83.4688 26.2305 83.468 26.6439C83.4672 27.0574 83.5712 27.4638 83.7695 27.8224C83.9678 28.181 84.2536 28.4791 84.598 28.6868C84.9497 28.8963 85.3489 29.0046 85.7544 29.0005C86.1575 29.0051 86.5542 28.8968 86.9029 28.6868V28.6868Z" fill="white"/>
</g>
<defs>
<clipPath id="clip0">
<rect width="75" height="25" fill="white" transform="translate(13 4)"/>
</clipPath>
</defs>
</svg>
