<svg width="100" height="32" viewBox="0 0 100 32" fill="none" xmlns="http://www.w3.org/2000/svg">
<path d="M77.6727 28.755L77.5705 28.4693C77.6318 28.4081 77.6523 28.3877 77.6523 28.3265C77.6523 28.2244 77.5705 28.1632 77.4478 28.1632H77.3047V28.755H77.3865V28.4897H77.4887L77.5909 28.755H77.6727ZM77.366 28.4285V28.2448H77.4274C77.5092 28.2448 77.55 28.2857 77.55 28.3469C77.55 28.3877 77.5296 28.4489 77.4274 28.4489L77.366 28.4285Z" fill="white"/>
<path d="M77.448 29C77.1413 29 76.8959 28.7551 76.8959 28.4489C76.8959 28.1428 77.1413 27.8979 77.448 27.8979C77.7546 27.8979 78 28.1428 78 28.4489C78 28.7551 77.7546 29 77.448 29ZM77.448 27.9795C77.1822 27.9795 76.9777 28.1836 76.9777 28.4489C76.9777 28.7142 77.1822 28.9183 77.448 28.9183C77.7138 28.9183 77.9182 28.7142 77.9182 28.4489C77.9387 28.1836 77.7138 27.9795 77.448 27.9795ZM48.7007 23.3673L47.2286 27.9183L45.4703 23.4081H45.0204L47.1468 28.9591H47.3513L48.8643 24.0816L50.4182 28.9591H50.6227L52.7286 23.4081H52.2379L50.5 27.9183L49.0074 23.3673H48.7007ZM54.5483 23.4081V28.9183H57.2472V28.5714H54.9777V23.4081H54.5483ZM58.0242 23.4081V28.9183H60.723V28.5714H58.4535V23.4081H58.0242ZM61.4796 28.8979H61.9089V23.3877H61.4796V28.8979ZM53.3216 28.8979H53.7509V23.3877H53.3216V28.8979ZM64.7918 23.3673L62.5019 28.8979H62.8903L63.6673 27H66.0799L66.8569 28.8979H67.2658L64.9963 23.3673H64.7918ZM64.8736 24.0612L65.9368 26.653H63.8104L64.8736 24.0612ZM72.4796 23.4081L70.3736 25.9591L68.2677 23.4081H67.8383V28.8979H68.2677V24.0408H68.2881L70.3736 26.6122L72.4591 24.0408H72.4796V28.8979H72.9089V23.4081H72.4796ZM76.4461 24.3061C76.0985 23.8571 75.6078 23.7551 75.2193 23.7551C74.5651 23.7551 74.0539 24.204 74.0539 24.7959C74.0539 26.2653 76.671 25.551 76.671 27.4898C76.671 28.3265 75.9758 29 75.0762 29C74.6264 29 74.1357 28.8775 73.6654 28.5102V28.0204C74.197 28.5306 74.6264 28.6122 75.0558 28.6122C75.71 28.6122 76.2212 28.1428 76.2212 27.5102C76.2212 25.9387 73.6041 26.6326 73.6041 24.8163C73.6041 24 74.3197 23.3673 75.1784 23.3673C75.6283 23.3673 76.1803 23.551 76.4461 23.8571V24.3061ZM31.2193 23.4081V28.9183H34.0613V28.204H32.0167V23.4081H31.2193ZM34.5725 23.4081V28.9183H37.4145V28.204H35.3699V23.4081H34.5725ZM37.9052 23.4081V28.9183H41.1152V28.204H38.7026V26.4898H40.9517V25.7755H38.7026V24.1224H41.0335V23.4081H37.9052ZM45.1636 28.9183L44.1413 26.3469C44.7546 25.8367 44.816 25.5102 44.816 24.9591C44.816 24 44.1208 23.4285 43.0167 23.4285H41.6264V28.9387H42.4238V26.4489C42.4238 26.4489 43.0781 26.4489 43.3643 26.4489L44.3662 28.9183H45.1636ZM42.4238 25.8163V24.0816H42.9349C43.7119 24.0816 44.0186 24.3877 44.0186 24.9183C44.0186 25.3877 43.7732 25.8163 42.9349 25.8163H42.4238ZM27.5186 23.4081V28.8979H30.7082V28.1836H28.2955V26.4693H30.5446V25.7551H28.2955V24.102H30.6264V23.3877H27.5186V23.4081ZM26.1078 23.4081L25.8216 23.7142L23.7974 25.9183V23.4081H23V28.8979H23.7974V27.0204L24.6766 26.0612L25.8216 28.8979H26.6394L26.3532 28.1836L25.2286 25.4285L26.4349 24.1224L27.0892 23.4081H26.1078Z" fill="white"/>
<path d="M23 4V20.6327H25.3309V16.7347L27.0279 15.0408L29.3996 20.6327H31.7509L28.6227 13.2245L30.8309 10.7959L35.1041 20.6531H36.0037L39.2138 13.0408L42.4647 20.6531H43.3439L48.21 9.42857H45.8178L42.8736 16.2245L40.0316 9.42857H38.3959L35.5335 16.2449L32.5688 9.42857H29.4814L25.3309 13.551V4H23Z" fill="white"/>
</svg>
