<svg width="100" height="32" viewBox="0 0 100 32" fill="none" xmlns="http://www.w3.org/2000/svg">
<g clip-path="url(#clip0)">
<path d="M82.068 22.7778C82.9917 22.7778 83.7406 22.3827 84.3148 21.8148C84.3648 21.7654 84.7642 21.4198 85.2386 20.9012C85.5381 20.6296 85.8877 20.4321 86.337 20.3827H87.086C87.5603 20.4815 88.0097 20.6049 88.4092 20.7778L92.3037 22.358C92.3037 22.358 93.2774 22.8025 94.0763 22.8025H94.6505C94.8252 22.8025 94.9501 22.679 94.9501 22.4815V21.0494C94.9501 20.0864 94.3759 19.1728 93.4022 18.7284L92.5284 18.3827C91.8294 18.1111 91.0555 17.642 90.681 17.2469C90.681 17.2469 89.8821 16.3333 90.8058 15.4444L94.251 11.9877C94.7004 11.4938 94.9501 10.9012 94.9501 10.284C94.9501 10.284 94.9501 10.0123 94.8502 9.81482C94.8003 9.64198 94.6754 9.46914 94.5756 9.37037C94.3509 9.14815 94.0513 9.02469 93.7018 9.02469H93.1276C92.2538 9.02469 91.4549 9.41975 90.8807 9.98765L87.9598 12.8765L84.8142 16.037V11C84.8142 9.91358 83.8904 9 82.742 9H81.8932C81.6685 9 81.319 9 81.1942 9.09877C81.0694 9.14815 81.0694 9.32099 81.0694 9.44444V22.4815C81.0694 22.6543 81.1942 22.8025 81.3939 22.8025L82.068 22.7778ZM65.6158 21.1235C65.5659 21.1235 64.8669 20.9012 63.3939 19.7654C62.6449 19.1975 62.1207 18.7531 61.846 18.5802C62.1207 18.4074 62.9945 18.0617 63.7933 17.1235C64.2677 16.5556 64.5423 15.8642 64.5423 14.9753C64.5423 14.1358 64.3176 13.3457 63.8433 12.6543C63.3689 11.9136 62.7448 11.2469 61.9958 10.7284C61.197 10.2099 60.3731 9.76543 59.3994 9.46914C58.4757 9.12346 57.552 9 56.6033 9H50.9362C50.7614 9 50.6117 9.12346 50.6117 9.2963V22.3333C50.6117 22.4568 50.6117 22.6049 50.7365 22.679C50.9112 22.7778 51.3107 22.7778 51.5354 22.7778C51.835 22.7778 52.1845 22.7778 52.509 22.6543C52.9834 22.5309 53.3828 22.1852 53.7074 21.7901C54.2316 21.0988 54.3814 20.3086 54.3814 19.4691V13.8148C54.3814 13.7161 54.3814 13.5432 54.4313 13.4198C54.4813 13.2963 54.5562 13.1481 54.5562 13.1481C54.9556 12.4074 56.4036 12.0864 58.0014 12.4815C60.1234 13 60.7476 14.4568 60.5229 15.0741C60.2483 15.7161 59.4993 16.1358 58.5756 16.1358C58.0763 16.1358 57.6519 16.0864 57.1526 15.9136C57.1526 15.9136 56.828 15.8148 56.6283 15.7407C56.5035 15.7407 56.2788 15.6173 56.129 15.6173C55.9542 15.6173 55.8544 15.7407 55.8544 16.0123V17.4938C55.8544 17.9877 56.0791 18.4568 56.3786 18.7284L60.9723 22.3086C61.4216 22.6296 61.896 22.8025 62.4452 22.8025H65.4411C65.6657 22.8025 65.7406 22.679 65.7406 22.4074V21.4938C65.7906 21.2963 65.6907 21.1728 65.6158 21.1235ZM47.2164 19.1975H43.1969C42.6227 19.1975 42.0985 19.0741 41.5742 18.8519C41.1748 18.679 40.5007 18.1111 40.301 17.8889C39.9515 17.4938 39.6519 17.0247 39.4522 16.4815C39.2275 15.963 39.1026 15.3951 39.1026 14.8272C39.1026 14.1358 39.3273 13.5679 39.7517 13.1728C39.8017 13.1235 39.9764 13 40.1512 12.8519C40.3759 12.7284 40.6006 12.679 40.7753 12.6296C41 12.5802 41.2497 12.5309 41.5243 12.5309C41.8488 12.5309 42.0985 12.5802 42.3232 12.6296C42.7975 12.7284 43.2718 12.9012 43.6963 13.1481C44.3204 13.5432 44.9695 14.1605 45.4189 14.7284H41.1997C40.9251 14.7284 40.8003 14.8519 40.8003 15.0741C40.8003 15.5185 40.9001 15.7654 41.0749 16.1358C41.2497 16.4815 42.0485 17.7161 43.6963 17.7161H47.6408C48.3148 17.7161 48.7892 17.5432 49.0638 17.1975C49.3384 16.8025 49.4133 16.5062 49.4133 16.0123C49.4133 15.2222 49.1886 14.4321 48.7642 13.6173C48.3648 12.7778 47.7906 12.037 47.0416 11.3457C46.3426 10.6543 45.4938 10.1111 44.57 9.69136C43.5964 9.2716 42.5728 9.04938 41.5492 9.04938H35.7074C35.5825 9.04938 35.4327 9.17284 35.4327 9.34568V15C35.4327 16.0864 35.6075 17.0988 36.0569 18.0123C36.4563 18.9753 37.0305 19.8148 37.7545 20.5062C38.4535 21.1975 39.3024 21.7654 40.2261 22.2099C41.1997 22.6049 42.2233 22.8272 43.2718 22.8272H49.0638C49.2386 22.8272 49.3634 22.7037 49.3634 22.5556V21.3457C49.3634 20.7037 49.1387 20.1605 48.7892 19.7654C48.3897 19.4198 47.8655 19.1975 47.2164 19.1975ZM34.1595 11.0247C34.1595 9.93827 33.2358 9.02469 32.0874 9.02469H29.9154C29.8155 9.02469 29.7406 9.07407 29.6408 9.12346L25.2718 13.1728C23.8239 14.5802 21.7767 15.321 19.5798 15.321C17.2829 15.321 15.1859 14.5062 13.6879 13C13.6879 13 10.4924 10.0123 10.4424 9.98765C9.81831 9.39506 8.99445 9 7.99584 9H5.39945C5.17476 9 5 9.17284 5 9.39506V20.7778C5 21.9136 5.92372 22.7778 7.02219 22.7778H8.39528C8.61997 22.7778 8.79473 22.6049 8.79473 22.3827V18.358C8.79473 17.2716 9.66852 16.3827 10.6921 16.3827C12.6893 16.3827 14.0624 18.037 15.3356 19.1728C16.8835 20.5309 18.0818 21.8395 19.5298 21.8395C21.0277 21.8395 22.2261 20.5309 23.7739 19.1728C25.0721 18.0617 26.4452 16.4074 28.3925 16.4074C29.466 16.4074 30.3398 17.2716 30.3398 18.3333V20.7778C30.3398 21.9136 31.2635 22.7778 32.362 22.7778H33.7351C33.9598 22.7778 34.1345 22.6049 34.1345 22.3827V11.0247H34.1595ZM79.4466 17.0247H77.3745C76.5756 17.0247 76.1013 17.3704 75.8266 18.037C75.7018 18.4815 75.4771 18.8272 75.1276 19.0988C74.828 19.3704 74.3786 19.4938 73.8544 19.4938C73.3551 19.4938 72.8807 19.3704 72.3564 19.0494C71.8571 18.7778 71.4327 18.4321 71.0333 17.9877C70.5839 17.5432 70.2843 17.0247 70.0097 16.5062C69.785 15.9383 69.6602 15.4198 69.6602 14.8519C69.6602 14.1852 69.835 13.6173 70.2843 13.2222C70.6838 12.7778 71.208 12.5802 71.8322 12.5802C72.5811 12.5802 73.2802 12.8519 74.0042 13.3704C74.2788 13.5926 74.5784 13.6667 74.8779 13.6667C75.2275 13.6667 75.552 13.4938 75.9515 13.1481L77.3745 11.7407C77.4743 11.642 77.4993 11.5679 77.4743 11.4691C77.4743 11.4198 77.3745 11.3457 77.2996 11.2469C76.5506 10.5556 75.7018 9.98765 74.7781 9.59259C73.8544 9.19753 72.8807 9.02469 71.8571 9.02469H66.19C66.0153 9.02469 65.8904 9.14815 65.8904 9.37037V14.9753C65.8904 16.0617 66.1151 17.0741 66.5395 18.037C66.9889 19 67.5631 19.8642 68.3121 20.6296C69.061 21.321 69.9598 21.9383 70.9334 22.3827C71.8571 22.8272 72.8807 23.0247 73.9043 23.0247C74.7531 23.0247 75.5021 22.9012 76.2011 22.5803C76.9001 22.3086 77.5243 21.9383 78.0485 21.4444C78.5728 20.9753 78.9723 20.358 79.2968 19.642C79.5964 18.9753 79.7712 18.1852 79.8211 17.4198C79.8211 17.1481 79.6713 17.0247 79.4466 17.0247Z" fill="white"/>
</g>
<defs>
<clipPath id="clip0">
<rect width="90" height="14" fill="white" transform="translate(5 9)"/>
</clipPath>
</defs>
</svg>
