<svg width="100" height="32" viewBox="0 0 100 32" fill="none" xmlns="http://www.w3.org/2000/svg">
<g clip-path="url(#clip0)">
<path d="M95.9339 11.1076L95.978 11.0215H87.9167C85.5379 11.0215 83.5116 11.4951 81.8377 12.4423C80.1638 13.411 78.9744 14.7241 78.2255 16.4462C77.763 17.544 77.6308 18.5342 77.8291 19.4384C78.0493 20.3855 78.666 21.0313 79.6131 21.4618C80.4941 21.8278 81.9478 22.0215 83.9962 22.0215H91.2866L92.0134 20.2779H87.9167C85.9344 20.2779 84.6129 20.0196 83.9521 19.5245C83.2253 18.9863 83.3134 17.7378 83.886 16.4247C84.8772 14.1429 86.9035 12.7221 89.7448 12.7221H92.9164L92.1896 14.4227H94.6124L96.022 11.1292L95.9339 11.1076ZM67.6754 17.5871L72.587 12.9374L73.6002 17.6086H67.6754V17.5871ZM25.9593 17.6086L30.7388 13.1526L31.5978 17.6086H25.9593ZM72.1685 11L69.1951 11.0215L57.6979 21.5479L62.191 11.0431H57.2794L51.3325 15.6067L48.271 18.0607H48.1389L49.5705 14.4873L47.8085 11.0431H42.8528L38.3596 21.5695L35.7386 11.0215H30.3203L18.3165 21.9785H21.3119L24.3735 19.1155H31.9282L32.5229 21.9785H40.5401L43.4475 15.1977C43.6016 14.8532 43.7338 14.4658 43.8659 14.0352C43.888 14.4012 43.9761 14.7671 44.1523 15.1546L46.7072 20.816H47.1257L54.4381 15.1761C54.7244 14.9609 55.1209 14.5734 55.6715 14.0137C55.3852 14.5303 55.187 14.9178 55.0768 15.1761L52.1915 21.9785H57.4776H63.05L66.0675 19.0939H73.9085L74.5473 21.9785H77.3005L74.6134 11H72.1685ZM19.66 19.4168C20.6292 18.5127 21.334 17.5225 21.7965 16.4247C22.5233 14.7241 22.4793 13.3894 21.6203 12.4207C20.7613 11.4736 19.1314 11 16.7527 11H8.71343L7.96457 12.7221H13.515C16.3562 12.7221 17.1712 14.0998 16.18 16.3816C15.6074 17.6947 15.1228 18.9217 13.9334 19.4599C12.8542 19.955 11.7309 20.1057 9.77065 20.1057H7.21571L9.13191 15.6712H6.70912L4 21.9785H11.2904C13.3388 21.9785 14.9466 21.8063 16.158 21.4188C17.4575 21.0098 18.6248 20.3425 19.66 19.4168Z" fill="white"/>
</g>
<defs>
<clipPath id="clip0">
<rect width="92" height="11" fill="white" transform="translate(4 11)"/>
</clipPath>
</defs>
</svg>
